<?xml version="1.0"?>
<svg xmlns="http://www.w3.org/2000/svg" height="512px" viewBox="0 0 512.002 512" width="512px"><g><path d="m432.734375 80.335938c-.359375 0-.71875 0-1.074219.003906.003906-.355469.007813-.714844.007813-1.074219 0-43.707031-35.558594-79.265625-79.269531-79.265625-43.707032 0-79.265626 35.558594-79.265626 79.269531 0 16.074219 4.757813 31.417969 13.613282 44.433594l-163.039063 163.042969c-13.015625-8.851563-28.363281-13.613282-44.441406-13.613282-43.707031 0-79.265625 35.558594-79.265625 79.269532 0 43.707031 35.558594 79.265625 79.265625 79.265625.359375 0 .71875-.003907 1.074219-.007813-.003906.359375-.003906.71875-.003906 1.074219 0 43.707031 35.558593 79.269531 79.265624 79.269531 43.707032 0 79.265626-35.5625 79.265626-79.269531 0-16.078125-4.757813-31.425781-13.609376-44.441406l163.035157-163.042969c13.019531 8.855469 28.367187 13.617188 44.441406 13.617188 43.707031 0 79.269531-35.558594 79.269531-79.265626-.003906-43.707031-35.5625-79.265624-79.269531-79.265624zm0 0" data-original="#000000" class="active-path" data-old_color="#000000" fill="#5C51D6"/></g> </svg>
